HIERARCHY
ROOT Hips
{
    OFFSET 0.000000 0.000000 0.000000
    CHANNELS 6 Xposition Yposition Zposition Zrotation Xrotation Yrotation
    JOINT Spine
    {
        OFFSET -0.000000 8.079700 0.000000
        CHANNELS 3 Zrotation Xrotation Yrotation
        JOINT Spine1
        {
            OFFSET -0.000000 23.289207 0.000000
            CHANNELS 3 Zrotation Xrotation Yrotation
            JOINT Neck
            {
                OFFSET -0.000000 23.193563 2.108506
                CHANNELS 3 Zrotation Xrotation Yrotation
                JOINT Head
                {
                    OFFSET -0.000000 13.794610 -1.970658
                    CHANNELS 3 Zrotation Xrotation Yrotation
                    End Site
                    {
                        OFFSET -0.000000 24.633232 0.000000
                    }
                }
            }
            JOINT LeftShoulder
            {
                OFFSET 3.964071 21.437269 -0.109506
                CHANNELS 3 Zrotation Xrotation Yrotation
                JOINT LeftArm
                {
                    OFFSET 10.889085 0.000000 0.000000
                    CHANNELS 3 Zrotation Xrotation Yrotation
                    JOINT LeftForeArm
                    {
                        OFFSET 33.323662 0.000000 0.000000
                        CHANNELS 3 Zrotation Xrotation Yrotation
                        JOINT LeftHand
                        {
                            OFFSET 25.127829 0.000000 0.000000
                            CHANNELS 3 Zrotation Xrotation Yrotation
                            End Site
                            {
                                OFFSET 14.779941 0.000000 0.000000
                            }
                        }
                    }
                }
            }
            JOINT RightShoulder
            {
                OFFSET -3.907116 21.437269 -0.109506
                CHANNELS 3 Zrotation Xrotation Yrotation
                JOINT RightArm
                {
                    OFFSET -10.889085 0.000000 0.000000
                    CHANNELS 3 Zrotation Xrotation Yrotation
                    JOINT RightForeArm
                    {
                        OFFSET -33.323662 0.000000 0.000000
                        CHANNELS 3 Zrotation Xrotation Yrotation
                        JOINT RightHand
                        {
                            OFFSET -25.127829 0.000000 0.000000
                            CHANNELS 3 Zrotation Xrotation Yrotation
                            End Site
                            {
                                OFFSET -14.779941 0.000000 0.000000
                            }
                        }
                    }
                }
            }
        }
    }
    JOINT LeftUpLeg
    {
        OFFSET 9.853293 0.000000 0.000000
        CHANNELS 3 Zrotation Xrotation Yrotation
        JOINT LeftLeg
        {
            OFFSET -0.000000 -42.191887 0.000000
            CHANNELS 3 Zrotation Xrotation Yrotation
            JOINT LeftFoot
            {
                OFFSET -0.000000 -39.359688 0.000000
                CHANNELS 3 Zrotation Xrotation Yrotation
                JOINT LeftToeBase
                {
                    OFFSET -0.000000 -6.404640 14.779941
                    CHANNELS 3 Zrotation Xrotation Yrotation
                    End Site
                    {
                        OFFSET -0.000000 0.000000 3.941317
                    }
                }
            }
        }
    }
    JOINT RightUpLeg
    {
        OFFSET -9.853293 0.000000 0.000000
        CHANNELS 3 Zrotation Xrotation Yrotation
        JOINT RightLeg
        {
            OFFSET -0.000000 -42.191887 0.000000
            CHANNELS 3 Zrotation Xrotation Yrotation
            JOINT RightFoot
            {
                OFFSET -0.000000 -39.359688 0.000000
                CHANNELS 3 Zrotation Xrotation Yrotation
                JOINT RightToeBase
                {
                    OFFSET -0.000000 -6.404640 14.779941
                    CHANNELS 3 Zrotation Xrotation Yrotation
                    End Site
                    {
                        OFFSET -0.000000 0.000000 3.941317
                    }
                }
            }
        }
    }
}
MOTION
Frames:    14
Frame Time:    0.008333
3.724895    88.326149    32.030384    -0.678306    -3.450748    178.609650    0.359281    -2.018164    2.334168    0.139967    -2.592220    2.331004    -6.790338    24.607430    2.560350    3.990136    -8.673524    2.977640    -3.631799    15.420302    6.123619    -58.992043    44.261608    -4.092926    -4.135238    -12.687433    -16.831913    -2.143585    -13.261333    -1.250932    -0.320552    13.763659    10.390041    35.662956    41.899837    34.951736    -11.015558    -8.556462    14.665240    12.879198    -5.082285    18.249357    -0.447271    -23.514055    9.862369    -2.066107    -0.438226    11.956522    -2.698843    -5.960423    6.841295    0.000000    0.000000    0.000000    -2.212746    9.244445    5.792520    8.706637    13.054217    1.151784    -12.637740    -17.921837    -16.601807    0.000000    0.000000    0.000000    
3.641253    88.209366    31.232475    -0.702557    -3.463009    178.499481    0.240677    -2.076019    2.348092    0.003056    -2.591911    2.343810    -6.752700    24.508730    2.587025    4.034225    -8.642126    3.023530    -3.593862    15.354999    6.084090    -59.004745    44.453472    -4.083966    -4.031922    -12.872321    -16.602419    -2.332517    -13.423312    -1.127209    -0.219749    13.838532    10.348912    35.739986    41.924820    34.936665    -11.077607    -8.494165    14.566413    13.268900    -4.939438    18.405579    -0.499791    -23.957691    9.865450    -2.145614    1.325993    11.209989    -2.284431    -6.008921    7.594240    0.000000    0.000000    0.000000    -2.255818    9.606282    5.543930    8.518801    13.371182    1.277991    -12.302855    -18.117226    -16.402220    0.000000    0.000000    0.000000    
3.564973    88.099136    30.408514    -0.686515    -3.492571    178.374619    0.230338    -2.217317    2.284385    -0.214164    -2.487831    2.275301    -6.776868    24.464691    2.705537    4.012187    -8.758447    3.146953    -3.607363    15.159740    6.247626    -58.958221    44.697090    -3.996109    -4.068594    -12.685796    -16.557411    -2.141888    -13.245154    -0.990143    -0.118112    13.909005    10.509384    35.669975    42.063515    34.997009    -11.032779    -8.511731    14.560566    12.830832    -5.048758    18.286953    -0.481309    -24.372168    9.782375    -2.185580    3.189061    10.207650    -1.140692    -6.081165    8.291978    0.000000    0.000000    0.000000    -2.308816    9.860455    5.279367    8.440678    13.884001    1.663861    -12.052068    -18.219872    -16.436394    0.000000    0.000000    0.000000    
3.469170    87.993279    29.573238    -0.710288    -3.520747    178.194687    0.117305    -2.251009    2.340720    -0.318772    -2.599132    2.331214    -6.819092    24.114925    2.764265    4.137288    -8.231877    3.237203    -3.659220    15.176636    6.220883    -58.818157    44.726276    -4.036967    -4.083963    -12.685393    -16.443043    -2.399285    -13.234844    -1.278145    -0.110948    13.943332    10.447610    35.838444    42.308743    34.917763    -11.059118    -8.417882    14.522023    12.973387    -4.924649    18.345665    -0.521063    -24.700457    9.736036    -2.181218    4.890707    9.320119    0.209825    -6.194662    8.980712    0.000000    0.000000    0.000000    -2.414068    10.121737    5.210197    8.356225    14.352605    1.831180    -11.743509    -18.303280    -16.346334    0.000000    0.000000    0.000000    
3.352282    87.898079    28.704189    -0.782199    -3.515175    177.969101    -0.003903    -2.384704    2.362647    -0.490107    -2.532181    2.351909    -6.971993    24.400206    2.791242    4.427816    -8.794255    3.316651    -3.672965    15.154645    6.232915    -58.747765    44.659168    -4.046715    -4.086529    -12.632134    -16.402727    -2.568436    -13.178850    -1.275625    -0.011531    14.192336    10.450749    35.601337    42.512642    35.173519    -11.197863    -8.424204    14.330347    13.336042    -4.863532    18.425793    -0.629092    -24.872288    9.527268    -2.192323    6.185915    9.191576    1.241397    -6.233746    9.392473    0.000000    0.000000    0.000000    -2.659548    10.417251    5.187970    8.431339    14.825552    1.828613    -11.442818    -18.349134    -16.145540    0.000000    0.000000    0.000000    
3.246621    87.794266    27.832491    -0.818806    -3.555855    177.699356    -0.140875    -2.547812    2.443143    -0.606420    -2.477913    2.433171    -6.874781    24.355646    2.772000    4.409011    -8.846800    3.305161    -3.639915    15.150040    6.196134    -58.688805    44.638363    -4.118712    -4.067212    -12.557241    -16.350735    -2.553590    -13.101926    -1.174369    0.017090    14.149769    10.453534    35.910500    42.699936    34.949638    -11.105148    -8.393866    14.322594    13.298999    -4.856637    18.382952    -0.698138    -25.003780    9.495342    -2.164613    7.060751    9.520390    2.510376    -5.826165    8.964054    0.000000    0.000000    0.000000    -2.782881    10.611312    5.148282    8.318524    15.425639    1.726920    -11.030889    -18.452871    -15.785997    0.000000    0.000000    0.000000    
3.165420    87.681023    26.937389    -0.790788    -3.541132    177.432083    -0.274808    -2.706916    2.476131    -0.639374    -2.310656    2.469763    -6.990224    24.178314    2.835111    4.612912    -8.904565    3.420712    -3.651771    15.007528    6.236417    -58.700230    44.556564    -4.072793    -4.028894    -12.445121    -16.393799    -2.654377    -12.988584    -1.023768    -0.126788    14.232134    10.457545    36.070206    42.830059    35.045300    -10.978347    -8.298707    14.266289    13.376619    -4.773855    18.347506    -0.650555    -25.007067    9.443568    -2.180450    7.726860    9.759925    3.628213    -5.253061    8.657967    0.000000    0.000000    0.000000    -2.831268    10.784105    4.767905    8.126854    16.262243    2.270936    -10.713484    -18.480293    -15.745654    0.000000    0.000000    0.000000    
3.056616    87.581184    26.000458    -0.820274    -3.515491    177.120987    -0.350247    -2.828643    2.514716    -0.877080    -2.338820    2.505472    -6.971510    24.073509    2.966162    4.760188    -8.682965    3.588973    -3.619914    14.972191    6.370461    -58.636467    44.505322    -4.091959    -3.996916    -12.349059    -16.244495    -2.900146    -12.876314    -1.209459    0.061154    14.340322    10.525054    36.073750    43.304790    34.963074    -11.078308    -8.298887    14.160237    13.595325    -4.742372    18.296497    -0.681224    -24.845583    9.310683    -2.164472    8.189768    9.519913    4.611509    -4.408518    8.848219    0.000000    0.000000    0.000000    -2.946850    11.029372    4.541455    7.848698    16.995672    2.380856    -10.155547    -18.533718    -15.217853    0.000000    0.000000    0.000000    
2.927212    87.505936    25.076496    -0.928417    -3.473963    176.777710    -0.618343    -2.989267    2.591897    -0.839481    -2.216713    2.591821    -7.006179    23.944166    3.010136    4.766335    -8.663994    3.641613    -3.674051    14.867744    6.431932    -58.584320    44.505516    -4.117496    -4.110360    -12.264657    -16.345798    -2.497904    -12.820193    -0.996236    -0.243672    14.254454    10.643379    36.680462    43.605499    34.703552    -10.980725    -8.137911    14.028973    13.481707    -4.611654    18.396286    -0.863667    -24.649754    9.262594    -1.919769    8.686140    9.205712    5.153543    -3.425669    8.948498    0.000000    0.000000    0.000000    -3.199133    11.147146    4.505284    7.765822    17.819111    2.328492    -9.635811    -18.456215    -14.824492    0.000000    0.000000    0.000000    
2.803023    87.435081    24.118853    -1.021559    -3.405327    176.427353    -0.834157    -3.135876    2.662416    -0.940807    -2.091117    2.668092    -6.831149    23.872143    3.007709    4.597941    -8.709276    3.622317    -3.682140    14.789779    6.555366    -58.435238    44.587032    -4.286341    -4.121624    -12.265884    -16.271923    -2.503504    -12.819657    -1.026979    -0.134913    14.279675    10.792160    36.935650    43.905220    34.367878    -10.962811    -8.144272    13.919671    13.607729    -4.608319    18.412165    -0.997854    -24.428503    9.275210    -1.748583    9.197894    9.630303    5.500278    -2.829781    8.546633    0.000000    0.000000    0.000000    -3.448015    11.277631    4.613822    7.692625    18.741333    2.325995    -9.240970    -18.236990    -14.573827    0.000000    0.000000    0.000000    
2.668150    87.362816    23.171455    -1.144193    -3.335021    176.133209    -1.096627    -3.307189    2.686858    -0.943498    -1.819935    2.703552    -7.118152    23.589157    3.040539    5.041498    -8.676777    3.750012    -3.710273    14.690108    6.680120    -58.279301    44.565086    -4.486741    -4.203353    -12.244001    -16.431946    -2.217675    -12.819684    -0.915706    -0.396772    14.139612    10.767486    37.340408    44.291908    34.331043    -10.835222    -8.074428    13.761414    13.581779    -4.562984    18.495132    -1.215414    -24.253849    9.098555    -1.507498    9.847966    10.105009    5.559003    -2.496995    8.367297    0.000000    0.000000    0.000000    -3.687712    11.304637    4.118392    7.333698    19.932016    2.741106    -8.627178    -18.093428    -14.066168    0.000000    0.000000    0.000000    
2.507199    87.336403    22.205809    -1.357181    -3.247985    175.867538    -1.488269    -3.470522    2.785813    -0.907021    -1.674538    2.817688    -7.178395    23.488649    3.035676    5.233552    -8.734681    3.791908    -3.766569    14.637271    6.612517    -58.096958    44.715649    -4.739153    -4.174437    -12.285495    -16.341688    -2.273456    -12.850861    -1.041428    -0.398343    14.250654    10.520489    37.522835    44.652679    34.288651    -10.866263    -7.945956    13.592454    13.688930    -4.434121    18.449350    -1.533954    -24.008856    8.741387    -1.291005    10.485568    10.859804    5.812707    -2.295200    7.984954    0.000000    0.000000    0.000000    -4.036856    11.344253    3.469218    6.902410    21.037725    2.923414    -7.912609    -17.749220    -13.140118    0.000000    0.000000    0.000000    
2.365937    87.314629    21.243937    -1.554276    -3.075818    175.637131    -1.914292    -3.509471    2.847104    -0.891870    -1.583252    2.893469    -6.948853    23.473156    3.004320    5.113930    -8.828005    3.754490    -3.716637    14.768903    6.498155    -57.921822    44.441154    -5.168340    -4.210951    -12.213507    -16.206400    -1.963847    -12.780955    -1.100622    -0.334022    14.351646    10.485069    37.833488    44.890713    33.950840    -10.693188    -7.732741    13.554250    13.660123    -4.259763    18.358391    -1.679443    -23.723135    8.140196    -1.421652    11.353601    11.856236    5.625606    -2.376657    7.920482    0.000000    0.000000    0.000000    -4.465309    11.348541    3.592858    6.958933    22.294207    2.893288    -7.495991    -17.243921    -12.827043    0.000000    0.000000    0.000000    
2.197435    87.316940    20.275747    -1.854171    -2.942138    175.528656    -2.446264    -3.637771    2.882917    -0.804646    -1.296591    2.951546    -6.837416    23.233662    2.877940    5.090522    -8.884462    3.644309    -3.758857    14.595656    6.487303    -57.601467    44.777191    -5.546059    -4.207719    -12.257513    -16.218315    -1.923390    -12.824063    -1.171767    -0.506669    14.257691    10.279893    38.551704    45.147091    33.583748    -10.755057    -7.767585    13.349797    13.909909    -4.253934    18.455286    -1.910404    -23.510189    7.515342    -1.777060    12.371421    12.329690    5.690149    -2.747746    8.398664    0.000000    0.000000    0.000000    -4.942935    11.326169    3.040780    6.669359    23.573915    2.893692    -6.839091    -16.656960    -11.929469    0.000000    0.000000    0.000000    
